name C:/MyDriveSym/Projects/mobilecap/Data\Session20210819_0002\mocap\ForceDataProcessed\walkingTS3_forces.mot
datacolumns 19
datarows 9
range 0.00000000 0.00400000
endheader 
time	R_ground_force_vx	R_ground_force_vy	R_ground_force_vz	R_ground_force_px	R_ground_force_py	R_ground_force_pz	R_ground_torque_x	R_ground_torque_y	R_ground_torque_z	L_ground_force_vx	L_ground_force_vy	L_ground_force_vz	L_ground_force_px	L_ground_force_py	L_ground_force_pz	L_ground_torque_x	L_ground_torque_y	L_ground_torque_z	
          0.00000000	        -19.10359500	         90.78907900	          8.53344600	          0.03777800	          0.00600000	         -0.16666600	          0.00000000	          0.50711300	          0.00000000	          0.00000000	          0.00000000	          0.00000000	          0.62191800	          0.00000000	         -0.29680900	          0.00000000	          0.00000000	          0.00000000	
          0.00050000	        -19.45706200	         92.29860500	          8.59045700	          0.03777800	          0.00600000	         -0.16666600	          0.00000000	          0.50612400	          0.00000000	          0.00000000	          0.00000000	          0.00000000	          0.62191800	          0.00000000	         -0.29680900	          0.00000000	          0.00000000	          0.00000000	
          0.00100000	        -19.81306300	         93.81918200	          8.64717100	          0.03777800	          0.00600000	         -0.16666600	          0.00000000	          0.50514800	          0.00000000	          0.00000000	          0.00000000	          0.00000000	          0.62191800	          0.00000000	         -0.29680900	          0.00000000	          0.00000000	          0.00000000	
          0.00150000	        -20.17158900	         95.35076800	          8.70357200	          0.03777800	          0.00600000	         -0.16666600	          0.00000000	          0.50418300	          0.00000000	          0.00000000	          0.00000000	          0.00000000	          0.62191800	          0.00000000	         -0.29680900	          0.00000000	          0.00000000	          0.00000000	
          0.00200000	        -20.53262900	         96.89331700	          8.75964800	          0.03813600	          0.00600000	         -0.16664800	          0.00000000	          0.50323100	          0.00000000	          0.00000000	          0.00000000	          0.00000000	          0.62191800	          0.00000000	         -0.29680900	          0.00000000	          0.00000000	          0.00000000	
          0.00250000	        -20.89617100	         98.44678300	          8.81538300	          0.03849000	          0.00600000	         -0.16663100	          0.00000000	          0.50229100	          0.00000000	          0.00000000	          0.00000000	          0.00000000	          0.62191800	          0.00000000	         -0.29680900	          0.00000000	          0.00000000	          0.00000000	
          0.00300000	        -21.26220300	        100.01111400	          8.87076100	          0.03884000	          0.00600000	         -0.16661400	          0.00000000	          0.50136200	          0.00000000	          0.00000000	          0.00000000	          0.00000000	          0.62191800	          0.00000000	         -0.29680900	          0.00000000	          0.00000000	          0.00000000	
          0.00350000	        -21.63071200	        101.58625900	          8.92577000	          0.03918500	          0.00600000	         -0.16659800	          0.00000000	          0.50044400	          0.00000000	          0.00000000	          0.00000000	          0.00000000	          0.62191800	          0.00000000	         -0.29680900	          0.00000000	          0.00000000	          0.00000000	
          0.00400000	        -22.00168600	        103.17216400	          8.98039200	          0.03952700	          0.00600000	         -0.16658200	          0.00000000	          0.49953600	          0.00000000	          0.00000000	          0.00000000	          0.00000000	          0.62191800	          0.00000000	         -0.29680900	          0.00000000	          0.00000000	          0.00000000	
